<?xml version="1.0" encoding="UTF-8"?>
<svg width="132px" height="130px" viewBox="0 0 132 130" version="1.1" xmlns="http://www.w3.org/2000/svg" xmlns:xlink="http://www.w3.org/1999/xlink">
    <g id="Welcome" stroke="none" stroke-width="1" fill="none" fill-rule="evenodd">
        <g id="Desktop-HD" transform="translate(-182.000000, -673.000000)" fill="#DB251A">
            <g id="0-0-24" transform="translate(182.000000, 673.000000)">
                <path d="M119.988373,29.4012174 C120.312272,23.7272948 117.140444,18.4140729 111.898533,15.8597981 L111.856405,15.8396062 C110.012393,14.9554041 108.501425,13.4997354 107.547115,11.6880302 L107.524524,11.6451989 C104.886931,6.61282788 99.4304104,3.55865074 93.6252633,3.86948356 L93.5321538,3.87407262 C91.4242019,3.99120372 89.3323676,3.44572166 87.5487249,2.3137898 L87.546588,2.3137898 C82.6233537,-0.771263268 76.3753145,-0.771263268 71.4520802,2.3137898 C69.6669519,3.44712281 67.5726692,3.99217958 65.462851,3.87254294 L65.3798157,3.86825981 C59.5707,3.56629919 54.115095,6.61191007 51.4768913,11.6439751 L51.4585747,11.678852 C50.5046487,13.4930262 48.9931001,14.9510988 47.1477584,15.8371587 L47.092198,15.8637753 C41.8597505,18.4125432 38.6879227,23.726377 39.0118216,29.4015233 L39.0164007,29.4795375 C39.1242431,31.4775464 38.5702426,33.4552708 37.4405609,35.1051219 C34.1864797,39.861994 34.1864797,46.1346407 37.4405609,50.8915128 C38.5704278,52.5402035 39.1250653,54.5168272 39.0182324,56.5140378 L39.0133479,56.5987826 C38.6894491,62.2727052 41.8609716,67.5859271 47.103188,70.1402019 L47.1453162,70.1603938 C48.9891314,71.0447335 50.5000335,72.5002315 51.4546061,74.3116639 L51.4771966,74.3548011 C54.1144845,79.3868662 59.5707,82.4401255 65.3764576,82.1305164 L65.4695671,82.1259274 C67.5775395,82.0085907 69.6694354,82.5540888 71.452996,83.6862102 C76.3762303,86.7712633 82.6242695,86.7712633 87.5475038,83.6862102 C89.3326167,82.5529732 91.4266099,82.0074291 93.5364277,82.1259274 L93.6197683,82.1305164 C99.4291893,82.4340067 104.884489,79.3865602 107.522387,74.3548011 L107.540704,74.3199242 C108.49463,72.50575 110.006179,71.0476775 111.85152,70.1616175 L111.907081,70.1350009 C117.139833,67.586233 120.311356,62.2723993 119.987457,56.5972529 L119.982878,56.5189328 C119.875369,54.5212085 120.4297,52.5438832 121.559634,50.8945722 C124.813455,46.1376195 124.813455,39.8651339 121.559634,35.1081813 C120.429578,33.4595793 119.874922,31.4828899 119.981962,29.4856562 L119.988373,29.4012174 Z M117.539441,48.1148212 C115.7949,50.6609749 114.939671,53.7138935 115.106994,56.7979481 L115.111878,56.8796335 C115.284175,60.6376455 113.181272,64.1298283 109.783269,65.7285787 L109.735951,65.7512181 C106.94653,67.0900473 104.662033,69.294306 103.22134,72.0370163 L103.198749,72.0804594 C101.359514,75.4741692 97.7214169,77.4888853 93.8755904,77.2434659 L93.7953026,77.2391828 C90.676578,77.0644062 87.5813125,77.8707033 84.94227,79.545342 C81.6124467,81.6312282 77.3871372,81.6312282 74.0573139,79.545342 C71.6585688,78.0216788 68.8767554,77.2134368 66.0367718,77.2150137 C65.7620225,77.2150137 65.4857468,77.2226621 65.2097764,77.2376531 L65.1197197,77.2422421 C61.2750566,77.4860241 57.638716,75.4714358 55.7999187,72.0789298 L55.7730543,72.0278381 C54.3318707,69.2876764 52.0479846,67.0858509 49.2599699,65.7487706 L49.2260841,65.7325559 C45.7715698,64.0498979 43.675538,60.5741385 43.8867897,56.8799394 L43.8916741,56.7915234 C44.0578918,53.7083222 43.2021503,50.6565659 41.4577007,48.1114559 C39.3497306,45.0298273 39.3503371,40.9661753 41.4592271,37.8851788 C43.2030373,35.3392828 44.0580163,32.2870286 43.8910636,29.2035816 L43.8864844,29.1218962 C43.7140506,25.3639347 45.8168476,21.871729 49.2147889,20.272951 L49.2621068,20.2503116 C52.0516156,18.9114998 54.3362154,16.7072452 55.7770229,13.9645134 L55.7996134,13.9210702 C57.5519033,10.5768641 61.2103427,8.54941421 65.1227725,8.75806379 L65.202755,8.76234692 C68.321545,8.93778276 71.4170082,8.13143409 74.0557876,6.45618772 C77.3859371,4.36951761 81.6121205,4.36951761 84.94227,6.45618772 C87.579164,8.13009512 90.672007,8.93658682 93.7885865,8.7629588 L93.8801696,8.75806379 C97.7877149,8.55522703 101.44707,10.5774759 103.199971,13.9216821 L103.22653,13.9727737 C104.667739,16.7126595 106.951501,18.9142541 109.739309,20.2512294 L109.773195,20.2674441 C113.227709,21.9501021 115.323435,25.4258615 115.112489,29.1200606 L115.107299,29.2084766 C114.941174,32.2916676 115.796907,35.3433947 117.541273,37.8885441 C119.648978,40.9702897 119.64825,45.0338342 117.539441,48.1148212 Z" id="Shape" fill-rule="nonzero"></path>
                <path d="M96.8445012,17.3617574 C96.2920769,17.0269462 95.6252533,16.9188641 94.9907295,17.061289 C94.3562057,17.2037138 93.8059608,17.5849783 93.4610467,18.1212055 L64.3724848,63.3544003 C63.9079613,64.0767796 63.8757571,64.9848353 64.2880032,65.7365115 C64.7002493,66.4881876 65.4943157,66.9692869 66.3710853,66.9985837 C67.2478549,67.0278806 68.0741255,66.6009242 68.538649,65.8785448 L97.6272109,20.645648 C98.3452284,19.5290166 97.9948102,18.0588227 96.8445012,17.3617574 Z" id="Path"></path>
                <path d="M78,31.4998449 C78,24.6073374 73.0654118,19 67,19 C60.9345882,19 56,24.6073374 56,31.4998449 C56,38.3923523 60.9345882,44 67,44 C73.0654118,44 78,38.3935934 78,31.4998449 Z M60.981602,31.4998449 C60.981602,27.344917 63.6816303,23.9644422 67,23.9644422 C70.3183697,23.9644422 73.018398,27.344917 73.018398,31.4998449 C73.018398,35.6547727 70.318681,39.0355578 67,39.0355578 C63.681319,39.0355578 60.981602,35.6560138 60.981602,31.4998449 Z" id="Shape" fill-rule="nonzero"></path>
                <path d="M93,42 C86.9345882,42 82,47.6073374 82,54.4998449 C82,61.3923523 86.9345882,67 93,67 C99.0654118,67 104,61.3926626 104,54.4998449 C104,47.6070272 99.0654118,42 93,42 Z M93,62.0355578 C89.6816303,62.0355578 86.981602,58.655083 86.981602,54.4998449 C86.981602,50.3446068 89.6816303,46.9644422 93,46.9644422 C96.3183697,46.9644422 99.018398,50.3464684 99.018398,54.4998449 C99.018398,58.6532213 96.318681,62.0355578 93,62.0355578 Z" id="Shape" fill-rule="nonzero"></path>
                <path d="M2.39001928,128.09338 L21.8780535,128.634409 L21.945637,128.634409 C23.2769628,128.634917 24.3666106,127.566027 24.403222,126.223641 L24.4594392,124.159614 L29.5223714,121.425344 C31.5091001,120.347512 33.8333878,120.090841 36.0042517,120.709551 L66.2356184,129.269017 C66.2884565,129.284201 66.3416018,129.297215 66.3953614,129.30868 C68.5809147,129.769581 70.8078642,130.001251 73.0406711,129.999994 C77.7683849,130.002804 82.4408106,128.974516 86.7377136,126.985604 C86.8431868,126.937048 86.9451236,126.881029 87.0427613,126.817966 L130.876861,98.2172073 C131.968625,97.5048882 132.321398,96.0580404 131.68172,94.9161901 C128.42688,89.0919932 121.210515,86.8737484 115.288707,89.8771268 L96.037215,99.05199 C93.3784779,94.0655207 88.2803692,90.8926269 82.6694889,90.7323608 L64.8974634,90.2387421 C62.0826138,90.1570698 59.3220116,89.4378888 56.8199961,88.1344327 L55.0121352,87.1896471 C45.7523002,82.3213782 34.7165205,82.3329523 25.4667419,87.2206338 L25.5794836,83.0879326 C25.59741,82.4307231 25.3557745,81.7932482 24.9077347,81.3157463 C24.4596949,80.8382444 23.8419521,80.5598303 23.1904038,80.5417524 L3.70236964,80.0010338 C3.05057123,79.9820381 2.41807368,80.2254677 1.9444849,80.6775917 C1.47089612,81.1297157 1.19515437,81.7533605 1.17812271,82.4108724 L0.000939523821,125.54751 C-0.0362173378,126.915959 1.03336296,128.055734 2.39001928,128.09338 Z M52.7508499,91.5910033 L54.5587108,92.5357889 C57.7192977,94.1820218 61.2063744,95.0904355 64.761989,95.1938313 L82.5340145,95.68745 C87.5261762,95.8326169 91.7658177,99.4175509 92.7790718,104.350412 L66.3068884,103.614477 C64.9501107,103.576828 63.819967,104.655749 63.7826416,106.024316 C63.7453162,107.392883 64.8149436,108.532846 66.1717212,108.570496 L95.3862622,109.381419 L95.4538458,109.381419 C96.7851716,109.381927 97.8748193,108.313037 97.9114307,106.970651 C97.9412954,105.893158 97.8618296,104.815409 97.6742738,103.754227 L117.415746,94.3438651 C117.4351,94.3345691 117.454146,94.325273 117.473192,94.3153573 C120.273724,92.8846107 123.661157,93.3630042 125.964456,95.514544 L84.5237367,122.55605 C79.1848053,124.98654 73.2221722,125.657594 67.4834572,124.473819 L37.3325763,115.937283 C33.9398803,114.969635 30.3071037,115.37055 27.202104,117.055285 L24.6142671,118.451547 L25.3069988,93.0650424 C33.5050184,87.5657239 44.01991,87.0006014 52.7508499,91.5900737 L52.7508499,91.5910033 Z M6.02355862,85.0246037 L20.5982661,85.4292905 L19.5565573,123.610219 L4.9818498,123.205532 L6.02355862,85.0246037 Z" id="Shape" fill-rule="nonzero"></path>
            </g>
        </g>
    </g>
</svg>