<?xml version="1.0" encoding="UTF-8"?>
<svg width="140px" height="128px" viewBox="0 0 140 128" version="1.1" xmlns="http://www.w3.org/2000/svg" xmlns:xlink="http://www.w3.org/1999/xlink">
    <g id="Welcome" stroke="none" stroke-width="2" fill="none" fill-rule="evenodd">
        <g id="Desktop-HD" transform="translate(-1086.000000, -670.000000)" fill="#DB251A" fill-rule="nonzero">
            <g id="design" transform="translate(1086.000000, 670.000000)">
                <path d="M113.454976,94 L105.651659,94 C105.651659,94 105.651659,94 105.651659,94 L51.450237,94 C51.028436,94 50.8175355,94.2142857 50.6066351,94.2142857 L35,104.5 L50.6066351,114.785714 C50.8175355,115 51.2393365,115 51.450237,115 L105.651659,115 C105.651659,115 105.651659,115 105.651659,115 L113.454976,115 C119.149289,115 124,110.285714 124,104.285714 C124,98.2857143 119.36019,94 113.454976,94 Z M104.175355,97.2142857 L104.175355,103 L52.9265403,103 L52.9265403,97.2142857 L104.175355,97.2142857 Z M49.7630332,98.5 L49.7630332,110.714286 L40.6943128,104.714286 L49.7630332,98.5 Z M52.9265403,106.214286 L103.964455,106.214286 L103.964455,112 L52.9265403,112 L52.9265403,106.214286 Z M113.454976,112 L107.127962,112 L107.127962,97.2142857 L113.454976,97.2142857 C117.462085,97.2142857 120.836493,100.642857 120.836493,104.714286 C120.836493,108.785714 117.672986,112 113.454976,112 Z" id="Shape"></path>
                <path d="M40.0088496,48.4090909 C43.1946903,48.4090909 45.7433628,46.25 46.5929204,43.2272727 L73.3539823,43.2272727 L81,51 L88.6460177,43.2272727 L115.619469,43.2272727 C116.256637,46.25 119.017699,48.4090909 122.20354,48.4090909 C125.814159,48.4090909 129,45.3863636 129,41.5 C129,37.8295455 126.026549,34.5909091 122.20354,34.5909091 C119.017699,34.5909091 116.469027,36.75 115.619469,39.7727273 L88.6460177,39.7727273 L81,32 L73.3539823,39.7727273 L46.380531,39.7727273 C45.7433628,36.75 42.9823009,34.5909091 39.7964602,34.5909091 C36.1858407,34.5909091 33,37.6136364 33,41.5 C33.2123894,45.3863636 36.1858407,48.4090909 40.0088496,48.4090909 Z M121.99115,38.0454545 C123.902655,38.0454545 125.60177,39.7727273 125.60177,41.7159091 C125.60177,43.6590909 124.115044,45.3863636 121.99115,45.3863636 C119.867257,45.3863636 118.59292,43.6590909 118.59292,41.7159091 C118.59292,39.7727273 120.079646,38.0454545 121.99115,38.0454545 Z M80.7876106,36.75 L85.6725664,41.7159091 L80.7876106,46.6818182 L76.1150442,41.7159091 L80.7876106,36.75 Z M40.0088496,38.0454545 C41.920354,38.0454545 43.619469,39.5568182 43.619469,41.7159091 C43.619469,43.6590909 42.1327434,45.3863636 40.0088496,45.3863636 C38.0973451,45.3863636 36.3982301,43.6590909 36.3982301,41.7159091 C36.3982301,39.7727273 38.0973451,38.0454545 40.0088496,38.0454545 Z" id="Shape"></path>
                <path d="M20.9465649,18.2550336 L20.9465649,0.214765101 L19.4503817,0.214765101 C19.4503817,0.214765101 15.8167939,0 14.5343511,0 C6.19847328,0 0,5.79865772 0,13.7449664 L0,111.892617 C0,111.892617 0,111.892617 0,112.107383 C0,120.912752 7.05343511,128 15.8167939,128 L140,128 L140,18.6845638 L20.9465649,18.6845638 L20.9465649,18.2550336 Z M3.20610687,13.7449664 C3.20610687,7.73154362 7.90839695,3.22147651 14.5343511,3.22147651 C15.389313,3.22147651 16.6717557,3.22147651 17.9541985,3.22147651 L17.9541985,96.2147651 C17.3129771,96.2147651 16.4580153,96 15.8167939,96 C10.6870229,96 6.19847328,98.5771812 3.20610687,102.228188 L3.20610687,13.7449664 Z M136.580153,124.348993 L15.6030534,124.348993 C8.76335878,124.348993 2.99236641,118.765101 2.99236641,111.677852 C2.99236641,104.805369 8.54961832,99.0067114 15.6030534,99.0067114 C16.4580153,99.0067114 17.9541985,99.2214765 18.8091603,99.4362416 L20.519084,99.8657718 L20.9465649,97.7181208 L20.9465649,21.261745 L136.793893,21.261745 L136.580153,124.348993 Z" id="Shape"></path>
                <path d="M122,61 L38,61 L38,83 L122,83 L122,61 Z M118.80203,79.92 L113.258883,79.92 L113.258883,71.12 L110.060914,71.12 L110.060914,79.92 L102.812183,79.92 L102.812183,74.2 L99.6142132,74.2 L99.6142132,79.92 L92.1522843,79.92 L92.1522843,71.12 L88.9543147,71.12 L88.9543147,79.92 L81.7055838,79.92 L81.7055838,74.2 L78.5076142,74.2 L78.5076142,79.92 L71.2588832,79.92 L71.2588832,71.12 L68.0609137,71.12 L68.0609137,79.92 L60.8121827,79.92 L60.8121827,74.2 L57.6142132,74.2 L57.6142132,79.92 L50.3654822,79.92 L50.3654822,71.12 L47.1675127,71.12 L47.1675127,79.92 L41.6243655,79.92 L41.6243655,64.52 L119.015228,64.52 L119.015228,79.92 L118.80203,79.92 Z" id="Shape"></path>
            </g>
        </g>
    </g>
</svg>