<?xml version="1.0" encoding="UTF-8"?>
<svg width="136px" height="128px" viewBox="0 0 136 128" version="1.1" xmlns="http://www.w3.org/2000/svg" xmlns:xlink="http://www.w3.org/1999/xlink">
    <g id="Welcome" stroke="none" stroke-width="1" fill="none" fill-rule="evenodd">
        <g id="Desktop-HD" transform="translate(-764.000000, -675.000000)" fill="#DB251A">
            <g id="manufacture" transform="translate(764.000000, 675.000000)">
                <path d="M24.8578852,18.6608676 C23.9767284,17.7797108 22.5420244,17.7797108 21.6608676,18.6608676 C20.7797108,19.5420244 20.7797108,20.9767284 21.6608676,21.8578852 L42.1421148,42.3391324 C42.5826932,42.7797108 43.1644826,43 43.7406236,43 C44.3167646,43 44.898554,42.7797108 45.3391324,42.3391324 C46.2202892,41.4579756 46.2202892,40.0232716 45.3391324,39.1421148 L24.8578852,18.6608676 Z" id="Path"></path>
                <path d="M15.8570138,27.6607183 C14.976056,26.7797606 13.5416761,26.7797606 12.6607183,27.6607183 C11.7797606,28.5416761 11.7797606,29.976056 12.6607183,30.8570138 L33.1429862,51.3392817 C33.5834651,51.7797606 34.1651231,52 34.741134,52 C35.3171448,52 35.8988028,51.7797606 36.3392817,51.3392817 C37.2202394,50.4583239 37.2202394,49.023944 36.3392817,48.1429862 L15.8570138,27.6607183 Z" id="Path"></path>
                <path d="M126.600238,46.6725383 C119.618718,46.1201339 116.541149,45.5226352 116.774817,36.892725 C116.911597,32.1070988 115.013764,29.5029065 111.639837,25.3147789 C110.300525,23.6462921 109.063798,22.4512947 106.932297,20.3825964 L104.082697,17.5923903 C91.9434002,5.58604897 78.9435239,0 63.1624378,0 C58.1528406,0 52.8810802,0.541130879 47.0507982,1.65157654 C45.9565517,1.8601374 45.170062,2.82966355 45.2099564,3.93447243 C45.2099564,4.04157125 45.2612492,4.61652281 45.2783468,4.72362163 C45.4208268,5.51277083 45.9736493,6.17227409 46.7373421,6.44847631 C48.8061519,7.20380483 50.9205553,7.88585521 53.0292594,8.5622688 L53.7701555,8.80465034 C59.0077207,10.478774 64.4276604,12.2092655 69.2548831,14.9431038 C75.2447428,18.3533556 79.3538664,21.4310375 79.940884,25.3485996 C80.4310152,28.4995596 78.8067431,31.768892 74.1789923,36.9885503 L61.2076121,48.628501 C58.9963223,45.810111 56.6197557,41.3683283 54.5053524,34.2321649 C54.2716851,33.4542892 53.8385459,32.744055 53.2002354,32.1296459 C52.2028754,31.205214 40.5879048,19.6892725 34.3529795,13.5057249 L33.144749,12.3163643 C33.0991554,12.2656333 28.9558367,7.43491281 22.8747898,7.43491281 C20.1619704,7.43491281 17.5973302,8.35934472 15.2549588,10.1743879 C12.7701074,12.1021666 5.64040762,19.1594152 3.70267946,21.6114145 C-1.79134978,28.5390171 1.89033372,35.9006518 5.58341561,39.0516118 C17.7683062,51.0466796 25.1658684,58.3688568 25.8839676,59.1241853 C26.4766845,59.7498679 27.2232798,60.2008103 28.0154686,60.4150079 C34.4156707,62.2751453 38.6615751,64.3663907 41.4883785,66.305443 L2.18669214,101.563502 C0.796087229,102.803593 0.0608903703,104.066232 0.0038983657,105.334508 C-0.0644920398,106.878985 0.778989628,108.508015 1.58827609,109.370442 C4.02753389,111.940814 6.56367809,114.404087 9.1055215,116.861723 C10.6215088,118.327286 12.1317969,119.787212 13.6249875,121.280958 C15.03269,122.667606 16.3606037,123.34402 17.6942166,123.34402 C19.0449271,123.34402 20.3956376,122.639422 21.8204377,121.196407 L57.850783,84.4558746 C59.611836,85.2844812 61.7604345,85.0195526 63.2137307,83.5878105 L64.3934651,82.4153602 L89.749208,107.499031 L95.6022869,118.101814 C95.7048725,118.287828 95.8530517,118.434384 95.9784341,118.597851 C95.9841333,118.603488 95.9841333,118.609125 95.9898325,118.609125 C96.3887765,119.138982 96.8618102,119.612471 97.4431286,119.933768 L110.967331,127.408138 C111.685431,127.808349 112.483319,128 113.269808,128 C114.495136,128 115.714765,127.532147 116.632337,126.630262 L121.465259,121.850273 C122.95275,120.373437 123.271905,118.079267 122.251748,116.258587 L114.694608,102.882508 C114.369754,102.296283 113.89672,101.834067 113.366695,101.450766 C113.360995,101.445129 113.355296,101.433856 113.349597,101.428219 C113.292605,101.371851 113.218515,101.349304 113.155824,101.30421 C113.04184,101.230932 112.939255,101.123833 112.819571,101.061828 L112.631498,100.960366 C112.6144,100.95473 112.597303,100.937819 112.580205,100.932182 L102.099375,95.2728554 L76.7493317,70.1891844 L77.923367,69.0280078 C79.5020456,67.4609829 79.6445256,65.0991721 78.5160839,63.2954025 L89.5098416,52.0725735 C91.0942193,50.5619165 92.9521586,48.9948917 94.7303092,48.7525101 C95.8587509,48.5946803 97.0441846,48.5101286 98.2524151,48.5101286 C100.520697,48.5101286 103.826233,48.8145147 106.641638,50.2800775 C110.397411,52.2304034 114.204477,54.8402325 111.731024,61.1477893 C111.542951,61.6269156 111.531552,62.1454994 111.674032,62.6246257 C112.198359,64.5298573 114.369754,67.1565968 117.96025,70.2342787 C118.364893,70.583759 118.843626,70.7472256 119.322359,70.7472256 C119.681409,70.7472256 120.051857,70.6514004 120.38241,70.4710234 C121.858503,70.1553637 123.573963,69.3211203 124.816388,68.4868769 C128.025038,66.3449005 131.125403,63.3743174 133.792629,59.8907874 C134.841282,58.5266866 135.718959,56.339616 135.964025,55.0149727 C136.083708,54.3611062 135.901333,53.6790558 135.468194,53.1661089 C131.997381,49.0681698 129.022398,46.8810992 126.600238,46.6725383 Z M8.68378066,35.7428219 C8.62108946,35.6864541 2.54004257,30.3766074 7.29317575,24.3847102 C9.01433429,22.2089132 15.8647732,15.4278668 18.076063,13.7142857 C19.5977495,12.5361987 21.2106233,11.9443368 22.880489,11.9443368 C26.7559453,11.9443368 29.6283424,15.1798485 29.7822208,15.3489519 L31.1272321,16.6848688 C40.1889608,25.6698961 49.1139087,34.5140039 50.1283664,35.4948036 C53.3712115,46.4301568 57.8108886,53.4761318 63.3106171,56.441078 C65.6643869,57.7093535 67.7331966,57.9348247 69.1864927,57.9348247 C70.13256,57.9348247 70.8221633,57.8277259 71.1527169,57.8671834 L52.4536402,76.3558217 C52.4536402,76.3614585 52.4536402,76.3614585 52.447941,76.3670953 L51.7013457,76.5418355 C51.9179153,75.7470495 52.476437,72.8722917 50.5045136,69.2422054 C49.7693168,67.8781046 48.5781839,66.305443 46.7373421,64.66514 C46.7316429,64.6595033 46.7316429,64.6538665 46.7316429,64.6538665 C46.7202445,64.6425929 46.7088461,64.6369561 46.7031469,64.6313194 C43.4375051,61.7340144 38.0802566,58.6225119 29.2236991,56.0408667 C28.1807454,54.9529681 15.9787573,42.9297164 8.68378066,35.7428219 Z M18.5547959,118.05672 C18.0817622,118.535846 17.7455094,118.755681 17.7854038,118.828959 C17.6657206,118.766954 17.3579638,118.592214 16.8621333,118.101814 C15.3575444,116.596794 13.8301587,115.119958 12.2970738,113.637485 C9.80652315,111.224943 7.30457415,108.812401 4.91660916,106.29276 C4.75133235,106.112383 4.57465713,105.661441 4.52336433,105.734719 C4.55755953,105.650167 4.74563315,105.345781 5.24146359,104.906112 L44.9591916,69.2816629 C45.6715916,70.0764488 46.1617229,70.7923199 46.4808781,71.378545 C47.6891086,73.6050731 47.3243598,75.2284657 47.3357582,75.2284657 C46.6062605,77.2915272 47.4041486,79.5575128 49.2962831,80.7412366 C50.0770736,81.2203629 50.9433521,81.4514708 51.8039313,81.4514708 C52.5106322,81.4514708 53.1945362,81.2485468 53.8385459,80.9385239 L54.4084659,81.5022019 L18.5547959,118.05672 Z M62.7805914,77.6353708 C62.7805914,77.6410076 62.7805914,77.6410076 62.7748922,77.6466444 L59.9936824,80.397393 C59.9309912,80.4706711 59.8227064,80.4593976 59.7486168,80.397393 L58.6942647,79.3545887 C58.6885655,79.3489519 58.6828663,79.3489519 58.6771671,79.3433151 L57.2751638,77.9566673 L72.1899714,63.2164876 L74.6976196,65.8432271 L71.9164098,68.5996125 C71.9164098,68.5996125 71.9107106,68.5996125 71.9107106,68.5996125 C71.9107106,68.5996125 71.9107106,68.6052493 71.9107106,68.6052493 L64.1825947,76.2543597 L62.7805914,77.6353708 Z M118.233812,118.676766 L113.195719,123.484939 L101.084918,116.765897 L111.47456,106.484411 L118.233812,118.676766 Z M99.1072951,98.7000176 C99.2611736,98.8465739 99.4378488,98.9818566 99.6316216,99.0833187 L107.946755,103.592743 L98.1441303,113.293641 L93.5961683,105.058305 C93.4935827,104.866655 93.3625011,104.697552 93.2143219,104.539722 L67.6249118,79.2305795 L68.6792639,78.1877752 L68.8217439,78.0468557 C68.8217439,78.0468557 68.8217439,78.0468557 68.8217439,78.0468557 L73.5235843,73.3908755 L99.1072951,98.7000176 Z M75.4442148,59.9640655 L75.278938,59.8005989 C75.9571429,58.4083143 75.9115493,56.7285538 75.0566692,55.3362692 C73.9111299,53.4761318 71.6428481,52.6362515 69.5968352,53.2957548 C69.5854368,53.2957548 67.8756766,53.7692443 65.4820124,52.4840585 C65.1457596,52.3036815 64.7924092,52.0725735 64.4276604,51.8189184 L75.7633701,41.6501673 L84.716814,50.4999119 L75.4442148,59.9640655 Z M130.156539,57.1682227 C127.791371,60.2628149 125.055755,62.8895543 122.263147,64.7496917 C121.408267,65.3246433 120.52489,65.7192179 119.920775,65.9277788 C117.623997,63.8478069 116.67793,62.5344372 116.301783,61.9031178 C119.652913,51.9429276 111.491658,47.7097058 108.761741,46.2948741 C105.125651,44.400916 101.045023,44.0007046 98.2524151,44.0007046 C96.8333142,44.0007046 95.4256116,44.1078034 94.0976979,44.2881804 C91.7781234,44.6094768 89.749208,45.8833891 87.9824558,47.3545887 L78.9435239,38.4146556 C82.4314346,34.2434384 85.2183436,29.7058305 84.4489516,24.6778228 C83.5997707,18.9790382 78.6699623,15.1065704 71.5231649,11.0368152 C66.6218525,8.25788268 61.3614905,6.49920733 56.2379093,4.85326757 C74.3157731,3.10022899 87.731691,7.81257707 100.862649,20.7884446 L103.826233,23.6857495 C105.815254,25.6135283 106.909501,26.6732429 108.077837,28.1218954 C111.286487,32.1070988 112.312343,33.6515765 112.226855,36.7630791 C111.884903,49.0456227 118.376292,50.5506429 126.218392,51.165052 C126.235489,51.165052 127.814168,51.4074335 131.193794,55.1671658 C130.93733,55.8492161 130.555483,56.6552757 130.156539,57.1682227 Z" id="Shape" fill-rule="nonzero"></path>
            </g>
        </g>
    </g>
</svg>