<?xml version="1.0" encoding="UTF-8"?>
<svg width="145px" height="141px" viewBox="0 0 145 141" version="1.1" xmlns="http://www.w3.org/2000/svg" xmlns:xlink="http://www.w3.org/1999/xlink">
    <g id="Welcome" stroke="none" stroke-width="1" fill="none" fill-rule="evenodd">
        <g id="Desktop-HD" transform="translate(-453.000000, -675.000000)" fill="#DB251A">
            <g id="warranty" transform="translate(453.000000, 675.000000)">
                <path d="M132.916667,0 L31.4166667,0 C24.7465382,0.00803727692 19.3413231,5.44538404 19.3333333,12.1551635 L19.3333333,106.965439 L2.41666667,106.965439 C1.08197852,106.965439 0,108.053849 0,109.396472 L0,114.258537 C0.00798978114,120.968316 5.41320489,126.405663 12.0833333,126.4137 L87.058,126.4137 L87.058,138.568864 C87.058,139.489671 87.5751724,140.331448 88.3939005,140.743246 C89.2126285,141.155043 90.192374,141.066174 90.9246667,140.51369 L99.1413333,134.314557 L107.358,140.51369 C107.775653,140.830561 108.284878,141.001312 108.808,140.999897 C109.182636,141.003352 109.553052,140.920178 109.890667,140.756793 C110.713012,140.342287 111.230146,139.494121 111.224667,138.568864 L111.224667,126.4137 L113.583333,126.4137 C120.253462,126.405663 125.658677,120.968316 125.666667,114.258537 L125.666667,19.4482616 L142.583333,19.4482616 C143.918021,19.4482616 145,18.3598512 145,17.0172289 L145,12.1551635 C144.99201,5.44538404 139.586795,0.00803727692 132.916667,0 Z M87.058,121.551635 L12.0833333,121.551635 C8.0792689,121.551635 4.83333333,118.286404 4.83333333,114.258537 L4.83333333,111.827504 L87.058,111.827504 L87.058,121.551635 Z M106.391333,133.706799 L100.591333,129.33094 C99.7320741,128.682664 98.5505926,128.682664 97.6913333,129.33094 L91.8913333,133.706799 L91.8913333,106.554594 C92.358299,106.591869 92.8277752,106.582912 93.293,106.527853 C94.6877569,108.337447 96.8360665,109.396435 99.1123333,109.396435 C101.3886,109.396435 103.53691,108.337447 104.931667,106.527853 C105.412873,106.58584 105.898671,106.5948 106.381667,106.554594 L106.391333,133.706799 Z M109.499167,94.7616546 C108.854631,94.9921333 108.337384,95.4865884 108.075729,96.1223721 C107.814074,96.7581559 107.832523,97.4757041 108.1265,98.0970315 C108.584192,99.06059 108.390032,100.209581 107.641543,100.966884 C106.893054,101.724188 105.751994,101.92614 104.7915,101.471305 C104.173599,101.17474 103.459649,101.155732 102.827018,101.419002 C102.194387,101.682272 101.702449,102.203114 101.473417,102.852131 C101.120249,103.859298 100.17401,104.532885 99.1123333,104.532885 C98.0506565,104.532885 97.1044173,103.859298 96.75125,102.852131 C96.5222178,102.203114 96.0302796,101.682272 95.3976489,101.419002 C94.7650181,101.155732 94.0510678,101.17474 93.4331667,101.471305 C92.4726727,101.92614 91.3316131,101.724188 90.583124,100.966884 C89.8346349,100.209581 89.6404745,99.06059 90.0981667,98.0970315 C90.3922489,97.4760219 90.4110331,96.7587545 90.1498629,96.1230303 C89.8886926,95.4873061 89.3720184,94.9926405 88.7279167,94.7616546 C87.7255617,94.4034586 87.0559166,93.4492897 87.0559166,92.3792426 C87.0559166,91.3091956 87.7255617,90.3550267 88.7279167,89.9968306 C89.3713727,89.7657611 89.8875311,89.2715032 90.1486422,88.636386 C90.4097534,88.0012688 90.3914153,87.2846469 90.0981667,86.6638847 C89.6387499,85.7001112 89.8321142,84.5497816 90.5809929,83.7915381 C91.3298716,83.0332946 92.4721223,82.8313073 93.4331667,83.2871803 C94.0510678,83.5837453 94.7650181,83.6027537 95.3976489,83.3394832 C96.0302796,83.0762128 96.5222178,82.5553716 96.75125,81.9063537 C97.1044173,80.8991874 98.0506565,80.2256006 99.1123333,80.2256006 C100.17401,80.2256006 101.120249,80.8991874 101.473417,81.9063537 C101.702449,82.5553716 102.194387,83.0762128 102.827018,83.3394832 C103.459649,83.6027537 104.173599,83.5837453 104.7915,83.2871803 C105.751994,82.8323447 106.893054,83.0342975 107.641543,83.7916009 C108.390032,84.5489043 108.584192,85.6978953 108.1265,86.6614537 C107.832523,87.2827811 107.814074,88.0003293 108.075729,88.6361131 C108.337384,89.2718968 108.854631,89.7663519 109.499167,89.9968306 C110.499181,90.3572451 111.166391,91.3106676 111.166391,92.3792426 C111.166391,93.4478176 110.499181,94.4012401 109.499167,94.7616546 Z M123.063917,5.16594449 C122.926167,5.3604271 122.805333,5.56706488 122.679667,5.77127163 C122.422203,6.18633192 122.189783,6.61659087 121.983667,7.05971896 C121.874917,7.30282223 121.773417,7.52647724 121.679167,7.76471844 C121.4996,8.24114374 121.34948,8.72827916 121.229667,9.22333806 C121.174083,9.44942411 121.104,9.66821705 121.0605,9.89916515 C120.914824,10.6423656 120.838769,11.3976732 120.833333,12.1551635 L120.833333,114.258537 C120.833333,118.286404 117.587398,121.551635 113.583333,121.551635 C112.77774,121.536629 111.980393,121.385416 111.224667,121.104325 L111.224667,104.194062 C112.727236,102.602523 113.437348,100.414879 113.158,98.2380314 C114.954539,96.8313626 116.005194,94.6693857 116.005194,92.3792426 C116.005194,90.0890996 114.954539,87.9271226 113.158,86.5204538 C113.443683,84.250235 112.671309,81.9745095 111.065137,80.3540372 C109.458965,78.733565 107.198966,77.9499192 104.941333,78.2306323 C103.546576,76.4210379 101.398267,75.3620502 99.122,75.3620502 C96.8457332,75.3620502 94.6974236,76.4210379 93.3026667,78.2306323 C91.0452596,77.9509186 88.7858671,78.7348899 87.1799387,80.3551162 C85.5740104,81.9753425 84.8013108,84.2504587 85.086,86.5204538 C83.2894613,87.9271226 82.238806,90.0890996 82.238806,92.3792426 C82.238806,94.6693857 83.2894613,96.8313626 85.086,98.2380314 C84.8003729,100.446456 85.5317711,102.66533 87.0725,104.264561 L87.0725,106.965439 L24.1666667,106.965439 L24.1666667,12.1551635 C24.1666667,8.12729664 27.4126022,4.8620654 31.4166667,4.8620654 L123.25,4.8620654 C123.182333,4.95687568 123.131583,5.06627215 123.063917,5.16594449 Z M140.166667,14.5861962 L125.666667,14.5861962 L125.666667,12.1551635 C125.666667,8.12729664 128.912602,4.8620654 132.916667,4.8620654 C136.920731,4.8620654 140.166667,8.12729664 140.166667,12.1551635 L140.166667,14.5861962 Z" id="Shape" fill-rule="nonzero"></path>
                <rect id="Rectangle" x="80" y="19" width="10" height="4"></rect>
                <rect id="Rectangle" x="56" y="19" width="19" height="4"></rect>
                <rect id="Rectangle" x="49" y="33" width="48" height="4"></rect>
                <rect id="Rectangle" x="37" y="47" width="12" height="4"></rect>
                <rect id="Rectangle" x="37" y="59" width="27" height="4"></rect>
                <rect id="Rectangle" x="54" y="47" width="55" height="4"></rect>
                <rect id="Rectangle" x="67" y="59" width="42" height="4"></rect>
                <rect id="Rectangle" x="37" y="72" width="48" height="4"></rect>
                <rect id="Rectangle" x="36" y="83" width="42" height="4"></rect>
            </g>
        </g>
    </g>
</svg>